<?xml version="1.0" encoding="UTF-8" standalone="no"?>
<svg
   xmlns:dc="http://purl.org/dc/elements/1.1/"
   xmlns:cc="http://creativecommons.org/ns#"
   xmlns:rdf="http://www.w3.org/1999/02/22-rdf-syntax-ns#"
   xmlns:svg="http://www.w3.org/2000/svg"
   xmlns="http://www.w3.org/2000/svg"
   xmlns:sodipodi="http://sodipodi.sourceforge.net/DTD/sodipodi-0.dtd"
   xmlns:inkscape="http://www.inkscape.org/namespaces/inkscape"
   style="fill-opacity:1; color-rendering:auto; color-interpolation:auto; stroke:black; text-rendering:auto; stroke-linecap:square; stroke-miterlimit:10; stroke-opacity:1; shape-rendering:auto; fill:black; stroke-dasharray:none; font-weight:normal; stroke-width:1; font-family:'Dialog'; font-style:normal; stroke-linejoin:miter; font-size:12; stroke-dashoffset:0; image-rendering:auto;"
   id="svg2"
   version="1.1"
   inkscape:version="0.47 r22583"
   width="100%"
   height="100%"
   sodipodi:docname="CentraliteIntermediaireBuffle.svg">
  <metadata
     id="metadata195">
    <rdf:RDF>
      <cc:Work
         rdf:about="">
        <dc:format>image/svg+xml</dc:format>
        <dc:type
           rdf:resource="http://purl.org/dc/dcmitype/StillImage" />
      </cc:Work>
    </rdf:RDF>
  </metadata>
  <sodipodi:namedview
     pagecolor="#ffffff"
     bordercolor="#666666"
     borderopacity="1"
     objecttolerance="10"
     gridtolerance="10"
     guidetolerance="10"
     inkscape:pageopacity="0"
     inkscape:pageshadow="2"
     inkscape:window-width="1280"
     inkscape:window-height="947"
     id="namedview193"
     showgrid="false"
     inkscape:zoom="1.2685914"
     inkscape:cx="413.44905"
     inkscape:cy="667.68248"
     inkscape:window-x="0"
     inkscape:window-y="25"
     inkscape:window-maximized="1"
     inkscape:current-layer="svg2" />
  <!--Generated by the Batik Graphics2D SVG Generator-->
  <defs
     id="genericDefs">
    <inkscape:perspective
       sodipodi:type="inkscape:persp3d"
       inkscape:vp_x="0 : 0.5 : 1"
       inkscape:vp_y="0 : 1000 : 0"
       inkscape:vp_z="1 : 0.5 : 1"
       inkscape:persp3d-origin="0.5 : 0.33333333 : 1"
       id="perspective197" />
  </defs>
  <line
     x1="565.3454"
     x2="668.36298"
     y1="353.39771"
     style="fill:none;stroke:#0d0d0d;stroke-width:2.11680007"
     y2="502.2793"
     id="line13" />
  <line
     x1="175.8542"
     x2="137.7518"
     y1="193.2265"
     style="fill:none;stroke:#ffff9a;stroke-width:2.11680007"
     y2="256.7305"
     id="line15" />
  <line
     x1="565.3454"
     x2="528.65417"
     y1="353.39771"
     style="fill:none;stroke:#0d0d0d;stroke-width:2.11680007"
     y2="342.81369"
     id="line17" />
  <line
     x1="668.36298"
     x2="601.33099"
     y1="502.2793"
     style="fill:none;stroke:#a82338;stroke-width:2.11680007"
     y2="459.9433"
     id="line19" />
  <line
     x1="239.3582"
     x2="196.3166"
     y1="69.040901"
     style="fill:none;stroke:#ffab62;stroke-width:2.11680007"
     y2="155.1241"
     id="line21" />
  <line
     x1="696.58698"
     x2="728.33899"
     y1="380.91611"
     style="fill:none;stroke:#ffab62;stroke-width:2.11680007"
     y2="448.65369"
     id="line23" />
  <line
     x1="733.2782"
     x2="633.08301"
     y1="401.37851"
     style="fill:none;stroke:#ffab62;stroke-width:2.11680007"
     y2="430.30811"
     id="line25" />
  <line
     x1="455.27179"
     x2="314.85739"
     y1="481.81689"
     style="fill:none;stroke:#d86f51;stroke-width:2.11680007"
     y2="478.99451"
     id="line27" />
  <line
     x1="266.87659"
     x2="175.8542"
     y1="230.62331"
     style="fill:none;stroke:#0d0d0d;stroke-width:2.11680007"
     y2="193.2265"
     id="line29" />
  <line
     x1="314.85739"
     x2="163.1534"
     y1="478.99451"
     style="fill:none;stroke:#ffab62;stroke-width:2.11680007"
     y2="560.84412"
     id="line31" />
  <line
     x1="721.98859"
     x2="728.33899"
     y1="502.98489"
     style="fill:none;stroke:#ffff9a;stroke-width:2.11680007"
     y2="448.65369"
     id="line33" />
  <line
     x1="199.8446"
     x2="302.15659"
     y1="289.89371"
     style="fill:none;stroke:#ffe19b;stroke-width:2.11680007"
     y2="301.88889"
     id="line35" />
  <line
     x1="196.3166"
     x2="175.8542"
     y1="155.1241"
     style="fill:none;stroke:#a82338;stroke-width:2.11680007"
     y2="193.2265"
     id="line37" />
  <line
     x1="526.53741"
     x2="455.27179"
     y1="389.3833"
     style="fill:none;stroke:#a82338;stroke-width:2.11680007"
     y2="481.81689"
     id="line39" />
  <line
     x1="696.58698"
     x2="590.04138"
     y1="380.91611"
     style="fill:none;stroke:#d86f51;stroke-width:2.11680007"
     y2="317.41211"
     id="line41" />
  <line
     x1="696.58698"
     x2="565.3454"
     y1="380.91611"
     style="fill:none;stroke:#a82338;stroke-width:2.11680007"
     y2="353.39771"
     id="line43" />
  <line
     x1="199.8446"
     x2="266.87659"
     y1="289.89371"
     style="fill:none;stroke:#ffe19b;stroke-width:2.11680007"
     y2="230.62331"
     id="line45" />
  <line
     x1="350.84299"
     x2="398.82379"
     y1="313.1785"
     style="fill:none;stroke:#d86f51;stroke-width:2.11680007"
     y2="383.73849"
     id="line47" />
  <line
     x1="423.51981"
     x2="350.84299"
     y1="352.69211"
     style="fill:none;stroke:#0d0d0d;stroke-width:2.11680007"
     y2="313.1785"
     id="line49" />
  <line
     x1="728.33899"
     x2="733.2782"
     y1="448.65369"
     style="fill:none;stroke:#ffe19b;stroke-width:2.11680007"
     y2="401.37851"
     id="line51" />
  <line
     x1="601.33099"
     x2="610.50378"
     y1="459.9433"
     style="fill:none;stroke:#ffab62;stroke-width:2.11680007"
     y2="523.44733"
     id="line53" />
  <line
     x1="526.53741"
     x2="423.51981"
     y1="389.3833"
     style="fill:none;stroke:#ffe19b;stroke-width:2.11680007"
     y2="352.69211"
     id="line55" />
  <line
     x1="633.08301"
     x2="696.58698"
     y1="430.30811"
     style="fill:none;stroke:#a82338;stroke-width:2.11680007"
     y2="380.91611"
     id="line57" />
  <line
     x1="526.53741"
     x2="565.3454"
     y1="389.3833"
     style="fill:none;stroke:#a82338;stroke-width:2.11680007"
     y2="353.39771"
     id="line59" />
  <line
     x1="423.51981"
     x2="521.59821"
     y1="352.69211"
     style="fill:none;stroke:#d86f51;stroke-width:2.11680007"
     y2="270.1369"
     id="line61" />
  <line
     x1="590.04138"
     x2="565.3454"
     y1="317.41211"
     style="fill:none;stroke:#ffff9a;stroke-width:2.11680007"
     y2="353.39771"
     id="line63" />
  <line
     x1="398.82379"
     x2="423.51981"
     y1="383.73849"
     style="fill:none;stroke:#ffe19b;stroke-width:2.11680007"
     y2="352.69211"
     id="line65" />
  <line
     x1="423.51981"
     x2="528.65417"
     y1="352.69211"
     style="fill:none;stroke:#0d0d0d;stroke-width:2.11680007"
     y2="342.81369"
     id="line67" />
  <line
     x1="266.87659"
     x2="302.15659"
     y1="230.62331"
     style="fill:none;stroke:#ffff9a;stroke-width:2.11680007"
     y2="301.88889"
     id="line69" />
  <line
     x1="668.36298"
     x2="721.98859"
     y1="502.2793"
     style="fill:none;stroke:#ffe19b;stroke-width:2.11680007"
     y2="502.98489"
     id="line71" />
  <line
     x1="521.59821"
     x2="590.04138"
     y1="270.1369"
     style="fill:none;stroke:#d86f51;stroke-width:2.11680007"
     y2="317.41211"
     id="line73" />
  <line
     x1="266.87659"
     x2="350.84299"
     y1="230.62331"
     style="fill:none;stroke:#0d0d0d;stroke-width:2.11680007"
     y2="313.1785"
     id="line75" />
  <line
     x1="633.08301"
     x2="601.33099"
     y1="430.30811"
     style="fill:none;stroke:#ffe19b;stroke-width:2.11680007"
     y2="459.9433"
     id="line77" />
  <line
     x1="137.7518"
     x2="199.8446"
     y1="256.7305"
     style="fill:none;stroke:#ffab62;stroke-width:2.11680007"
     y2="289.89371"
     id="line79" />
  <line
     x1="528.65417"
     x2="521.59821"
     y1="342.81369"
     style="fill:none;stroke:#ffff9a;stroke-width:2.11680007"
     y2="270.1369"
     id="line81" />
  <line
     x1="314.85739"
     x2="398.82379"
     y1="478.99451"
     style="fill:none;stroke:#d86f51;stroke-width:2.11680007"
     y2="383.73849"
     id="line83" />
  <line
     x1="302.15659"
     x2="350.84299"
     y1="301.88889"
     style="fill:none;stroke:#a82338;stroke-width:2.11680007"
     y2="313.1785"
     id="line85" />
  <circle
     style="fill:#0d0d0d;stroke:none"
     r="6"
     cx="352"
     cy="351"
     id="circle87"
     d="m 358,351 c 0,3.31371 -2.68629,6 -6,6 -3.31371,0 -6,-2.68629 -6,-6 0,-3.31371 2.68629,-6 6,-6 3.31371,0 6,2.68629 6,6 z"
     sodipodi:cx="352"
     sodipodi:cy="351"
     sodipodi:rx="6"
     sodipodi:ry="6"
     transform="matrix(0.7056,0,0,0.7056,102.4718,65.5129)" />
  <circle
     style="fill:none;stroke:#000000;stroke-width:1"
     r="6"
     cx="352"
     cy="351"
     id="circle89"
     d="m 358,351 c 0,3.31371 -2.68629,6 -6,6 -3.31371,0 -6,-2.68629 -6,-6 0,-3.31371 2.68629,-6 6,-6 3.31371,0 6,2.68629 6,6 z"
     sodipodi:cx="352"
     sodipodi:cy="351"
     sodipodi:rx="6"
     sodipodi:ry="6"
     transform="matrix(0.7056,0,0,0.7056,102.4718,65.5129)" />
  <circle
     style="fill:#ffff9a;stroke:none"
     r="6"
     cx="720"
     cy="649"
     id="circle91"
     d="m 726,649 c 0,3.31371 -2.68629,6 -6,6 -3.31371,0 -6,-2.68629 -6,-6 0,-3.31371 2.68629,-6 6,-6 3.31371,0 6,2.68629 6,6 z"
     sodipodi:cx="720"
     sodipodi:cy="649"
     sodipodi:rx="6"
     sodipodi:ry="6"
     transform="matrix(0.7056,0,0,0.7056,102.4718,65.5129)" />
  <circle
     style="fill:none;stroke:#000000;stroke-width:1"
     r="6"
     cx="720"
     cy="649"
     id="circle93"
     d="m 726,649 c 0,3.31371 -2.68629,6 -6,6 -3.31371,0 -6,-2.68629 -6,-6 0,-3.31371 2.68629,-6 6,-6 3.31371,0 6,2.68629 6,6 z"
     sodipodi:cx="720"
     sodipodi:cy="649"
     sodipodi:rx="6"
     sodipodi:ry="6"
     transform="matrix(0.7056,0,0,0.7056,102.4718,65.5129)" />
  <circle
     style="fill:#ffab62;stroke:none"
     r="6"
     cx="707"
     cy="559"
     id="circle95"
     d="m 713,559 c 0,3.31371 -2.68629,6 -6,6 -3.31371,0 -6,-2.68629 -6,-6 0,-3.31371 2.68629,-6 6,-6 3.31371,0 6,2.68629 6,6 z"
     sodipodi:cx="707"
     sodipodi:cy="559"
     sodipodi:rx="6"
     sodipodi:ry="6"
     transform="matrix(0.7056,0,0,0.7056,102.4718,65.5129)" />
  <circle
     style="fill:none;stroke:#000000;stroke-width:1"
     r="6"
     cx="707"
     cy="559"
     id="circle97"
     d="m 713,559 c 0,3.31371 -2.68629,6 -6,6 -3.31371,0 -6,-2.68629 -6,-6 0,-3.31371 2.68629,-6 6,-6 3.31371,0 6,2.68629 6,6 z"
     sodipodi:cx="707"
     sodipodi:cy="559"
     sodipodi:rx="6"
     sodipodi:ry="6"
     transform="matrix(0.7056,0,0,0.7056,102.4718,65.5129)" />
  <circle
     style="fill:#ffff9a;stroke:none"
     r="6"
     cx="50"
     cy="271"
     id="circle99"
     d="m 56,271 c 0,3.31371 -2.686292,6 -6,6 -3.313708,0 -6,-2.68629 -6,-6 0,-3.31371 2.686292,-6 6,-6 3.313708,0 6,2.68629 6,6 z"
     sodipodi:cx="50"
     sodipodi:cy="271"
     sodipodi:rx="6"
     sodipodi:ry="6"
     transform="matrix(0.7056,0,0,0.7056,102.4718,65.5129)" />
  <circle
     style="fill:none;stroke:#000000;stroke-width:1"
     r="6"
     cx="50"
     cy="271"
     id="circle101"
     d="m 56,271 c 0,3.31371 -2.686292,6 -6,6 -3.313708,0 -6,-2.68629 -6,-6 0,-3.31371 2.686292,-6 6,-6 3.313708,0 6,2.68629 6,6 z"
     sodipodi:cx="50"
     sodipodi:cy="271"
     sodipodi:rx="6"
     sodipodi:ry="6"
     transform="matrix(0.7056,0,0,0.7056,102.4718,65.5129)" />
  <circle
     style="fill:#ffab62;stroke:none"
     r="6"
     cx="133"
     cy="127"
     id="circle103"
     d="m 139,127 c 0,3.31371 -2.68629,6 -6,6 -3.31371,0 -6,-2.68629 -6,-6 0,-3.31371 2.68629,-6 6,-6 3.31371,0 6,2.68629 6,6 z"
     sodipodi:cx="133"
     sodipodi:cy="127"
     sodipodi:rx="6"
     sodipodi:ry="6"
     transform="matrix(0.7056,0,0,0.7056,102.4718,65.5129)" />
  <circle
     style="fill:none;stroke:#000000;stroke-width:1"
     r="6"
     cx="133"
     cy="127"
     id="circle105"
     d="m 139,127 c 0,3.31371 -2.68629,6 -6,6 -3.31371,0 -6,-2.68629 -6,-6 0,-3.31371 2.68629,-6 6,-6 3.31371,0 6,2.68629 6,6 z"
     sodipodi:cx="133"
     sodipodi:cy="127"
     sodipodi:rx="6"
     sodipodi:ry="6"
     transform="matrix(0.7056,0,0,0.7056,102.4718,65.5129)" />
  <circle
     style="fill:#d86f51;stroke:none"
     r="6"
     cx="301"
     cy="586"
     id="circle107"
     d="m 307,586 c 0,3.31371 -2.68629,6 -6,6 -3.31371,0 -6,-2.68629 -6,-6 0,-3.31371 2.68629,-6 6,-6 3.31371,0 6,2.68629 6,6 z"
     sodipodi:cx="301"
     sodipodi:cy="586"
     sodipodi:rx="6"
     sodipodi:ry="6"
     transform="matrix(0.7056,0,0,0.7056,102.4718,65.5129)" />
  <circle
     style="fill:none;stroke:#000000;stroke-width:1"
     r="6"
     cx="301"
     cy="586"
     id="circle109"
     d="m 307,586 c 0,3.31371 -2.68629,6 -6,6 -3.31371,0 -6,-2.68629 -6,-6 0,-3.31371 2.68629,-6 6,-6 3.31371,0 6,2.68629 6,6 z"
     sodipodi:cx="301"
     sodipodi:cy="586"
     sodipodi:rx="6"
     sodipodi:ry="6"
     transform="matrix(0.7056,0,0,0.7056,102.4718,65.5129)" />
  <circle
     style="fill:#0d0d0d;stroke:none"
     r="6"
     cx="604"
     cy="393"
     id="circle111"
     d="m 610,393 c 0,3.31371 -2.68629,6 -6,6 -3.31371,0 -6,-2.68629 -6,-6 0,-3.31371 2.68629,-6 6,-6 3.31371,0 6,2.68629 6,6 z"
     sodipodi:cx="604"
     sodipodi:cy="393"
     sodipodi:rx="6"
     sodipodi:ry="6"
     transform="matrix(0.7056,0,0,0.7056,102.4718,65.5129)" />
  <circle
     style="fill:none;stroke:#000000;stroke-width:1"
     r="6"
     cx="604"
     cy="393"
     id="circle113"
     d="m 610,393 c 0,3.31371 -2.68629,6 -6,6 -3.31371,0 -6,-2.68629 -6,-6 0,-3.31371 2.68629,-6 6,-6 3.31371,0 6,2.68629 6,6 z"
     sodipodi:cx="604"
     sodipodi:cy="393"
     sodipodi:rx="6"
     sodipodi:ry="6"
     transform="matrix(0.7056,0,0,0.7056,102.4718,65.5129)" />
  <circle
     style="fill:#ffff9a;stroke:none"
     r="6"
     cx="86"
     cy="702"
     id="circle115"
     d="m 92,702 c 0,3.31371 -2.686292,6 -6,6 -3.313708,0 -6,-2.68629 -6,-6 0,-3.31371 2.686292,-6 6,-6 3.313708,0 6,2.68629 6,6 z"
     sodipodi:cx="86"
     sodipodi:cy="702"
     sodipodi:rx="6"
     sodipodi:ry="6"
     transform="matrix(0.7056,0,0,0.7056,102.4718,65.5129)" />
  <circle
     style="fill:none;stroke:#000000;stroke-width:1"
     r="6"
     cx="86"
     cy="702"
     id="circle117"
     d="m 92,702 c 0,3.31371 -2.686292,6 -6,6 -3.313708,0 -6,-2.68629 -6,-6 0,-3.31371 2.686292,-6 6,-6 3.313708,0 6,2.68629 6,6 z"
     sodipodi:cx="86"
     sodipodi:cy="702"
     sodipodi:rx="6"
     sodipodi:ry="6"
     transform="matrix(0.7056,0,0,0.7056,102.4718,65.5129)" />
  <circle
     style="fill:#ffff9a;stroke:none"
     r="6"
     cx="194"
     cy="5"
     id="circle119"
     d="m 200,5 c 0,3.3137085 -2.68629,6 -6,6 -3.31371,0 -6,-2.6862915 -6,-6 0,-3.3137085 2.68629,-6 6,-6 3.31371,0 6,2.6862915 6,6 z"
     sodipodi:cx="194"
     sodipodi:cy="5"
     sodipodi:rx="6"
     sodipodi:ry="6"
     transform="matrix(0.7056,0,0,0.7056,102.4718,65.5129)" />
  <circle
     style="fill:none;stroke:#000000;stroke-width:1"
     r="6"
     cx="194"
     cy="5"
     id="circle121"
     d="m 200,5 c 0,3.3137085 -2.68629,6 -6,6 -3.31371,0 -6,-2.6862915 -6,-6 0,-3.3137085 2.68629,-6 6,-6 3.31371,0 6,2.6862915 6,6 z"
     sodipodi:cx="194"
     sodipodi:cy="5"
     sodipodi:rx="6"
     sodipodi:ry="6"
     transform="matrix(0.7056,0,0,0.7056,102.4718,65.5129)" />
  <circle
     style="fill:#ffab62;stroke:none"
     r="6"
     cx="500"
     cy="590"
     id="circle123"
     d="m 506,590 c 0,3.31371 -2.68629,6 -6,6 -3.31371,0 -6,-2.68629 -6,-6 0,-3.31371 2.68629,-6 6,-6 3.31371,0 6,2.68629 6,6 z"
     sodipodi:cx="500"
     sodipodi:cy="590"
     sodipodi:rx="6"
     sodipodi:ry="6"
     transform="matrix(0.7056,0,0,0.7056,102.4718,65.5129)" />
  <circle
     style="fill:none;stroke:#000000;stroke-width:1"
     r="6"
     cx="500"
     cy="590"
     id="circle125"
     d="m 506,590 c 0,3.31371 -2.68629,6 -6,6 -3.31371,0 -6,-2.68629 -6,-6 0,-3.31371 2.68629,-6 6,-6 3.31371,0 6,2.68629 6,6 z"
     sodipodi:cx="500"
     sodipodi:cy="590"
     sodipodi:rx="6"
     sodipodi:ry="6"
     transform="matrix(0.7056,0,0,0.7056,102.4718,65.5129)" />
  <circle
     style="fill:#0d0d0d;stroke:none"
     r="6"
     cx="233"
     cy="234"
     id="circle127"
     d="m 239,234 c 0,3.31371 -2.68629,6 -6,6 -3.31371,0 -6,-2.68629 -6,-6 0,-3.31371 2.68629,-6 6,-6 3.31371,0 6,2.68629 6,6 z"
     sodipodi:cx="233"
     sodipodi:cy="234"
     sodipodi:rx="6"
     sodipodi:ry="6"
     transform="matrix(0.7056,0,0,0.7056,102.4718,65.5129)" />
  <circle
     style="fill:none;stroke:#000000;stroke-width:1"
     r="6"
     cx="233"
     cy="234"
     id="circle129"
     d="m 239,234 c 0,3.31371 -2.68629,6 -6,6 -3.31371,0 -6,-2.68629 -6,-6 0,-3.31371 2.68629,-6 6,-6 3.31371,0 6,2.68629 6,6 z"
     sodipodi:cx="233"
     sodipodi:cy="234"
     sodipodi:rx="6"
     sodipodi:ry="6"
     transform="matrix(0.7056,0,0,0.7056,102.4718,65.5129)" />
  <circle
     style="fill:#ffff9a;stroke:none"
     r="6"
     cx="878"
     cy="620"
     id="circle131"
     d="m 884,620 c 0,3.31371 -2.68629,6 -6,6 -3.31371,0 -6,-2.68629 -6,-6 0,-3.31371 2.68629,-6 6,-6 3.31371,0 6,2.68629 6,6 z"
     sodipodi:cx="878"
     sodipodi:cy="620"
     sodipodi:rx="6"
     sodipodi:ry="6"
     transform="matrix(0.7056,0,0,0.7056,102.4718,65.5129)" />
  <circle
     style="fill:none;stroke:#000000;stroke-width:1"
     r="6"
     cx="878"
     cy="620"
     id="circle133"
     d="m 884,620 c 0,3.31371 -2.68629,6 -6,6 -3.31371,0 -6,-2.68629 -6,-6 0,-3.31371 2.68629,-6 6,-6 3.31371,0 6,2.68629 6,6 z"
     sodipodi:cx="878"
     sodipodi:cy="620"
     sodipodi:rx="6"
     sodipodi:ry="6"
     transform="matrix(0.7056,0,0,0.7056,102.4718,65.5129)" />
  <circle
     style="fill:#ffff9a;stroke:none"
     r="6"
     cx="887"
     cy="543"
     id="circle135"
     d="m 893,543 c 0,3.31371 -2.68629,6 -6,6 -3.31371,0 -6,-2.68629 -6,-6 0,-3.31371 2.68629,-6 6,-6 3.31371,0 6,2.68629 6,6 z"
     sodipodi:cx="887"
     sodipodi:cy="543"
     sodipodi:rx="6"
     sodipodi:ry="6"
     transform="matrix(0.7056,0,0,0.7056,102.4718,65.5129)" />
  <circle
     style="fill:none;stroke:#000000;stroke-width:1"
     r="6"
     cx="887"
     cy="543"
     id="circle137"
     d="m 893,543 c 0,3.31371 -2.68629,6 -6,6 -3.31371,0 -6,-2.68629 -6,-6 0,-3.31371 2.68629,-6 6,-6 3.31371,0 6,2.68629 6,6 z"
     sodipodi:cx="887"
     sodipodi:cy="543"
     sodipodi:rx="6"
     sodipodi:ry="6"
     transform="matrix(0.7056,0,0,0.7056,102.4718,65.5129)" />
  <circle
     style="fill:#a82338;stroke:none"
     r="6"
     cx="802"
     cy="619"
     id="circle139"
     d="m 808,619 c 0,3.31371 -2.68629,6 -6,6 -3.31371,0 -6,-2.68629 -6,-6 0,-3.31371 2.68629,-6 6,-6 3.31371,0 6,2.68629 6,6 z"
     sodipodi:cx="802"
     sodipodi:cy="619"
     sodipodi:rx="6"
     sodipodi:ry="6"
     transform="matrix(0.7056,0,0,0.7056,102.4718,65.5129)" />
  <circle
     style="fill:none;stroke:#000000;stroke-width:1"
     r="6"
     cx="802"
     cy="619"
     id="circle141"
     d="m 808,619 c 0,3.31371 -2.68629,6 -6,6 -3.31371,0 -6,-2.68629 -6,-6 0,-3.31371 2.68629,-6 6,-6 3.31371,0 6,2.68629 6,6 z"
     sodipodi:cx="802"
     sodipodi:cy="619"
     sodipodi:rx="6"
     sodipodi:ry="6"
     transform="matrix(0.7056,0,0,0.7056,102.4718,65.5129)" />
  <circle
     style="fill:#ffe19b;stroke:none"
     r="6"
     cx="283"
     cy="335"
     id="circle143"
     d="m 289,335 c 0,3.31371 -2.68629,6 -6,6 -3.31371,0 -6,-2.68629 -6,-6 0,-3.31371 2.68629,-6 6,-6 3.31371,0 6,2.68629 6,6 z"
     sodipodi:cx="283"
     sodipodi:cy="335"
     sodipodi:rx="6"
     sodipodi:ry="6"
     transform="matrix(0.7056,0,0,0.7056,102.4718,65.5129)" />
  <circle
     style="fill:none;stroke:#000000;stroke-width:1"
     r="6"
     cx="283"
     cy="335"
     id="circle145"
     d="m 289,335 c 0,3.31371 -2.68629,6 -6,6 -3.31371,0 -6,-2.68629 -6,-6 0,-3.31371 2.68629,-6 6,-6 3.31371,0 6,2.68629 6,6 z"
     sodipodi:cx="283"
     sodipodi:cy="335"
     sodipodi:rx="6"
     sodipodi:ry="6"
     transform="matrix(0.7056,0,0,0.7056,102.4718,65.5129)" />
  <circle
     style="fill:#d86f51;stroke:none"
     r="6"
     cx="601"
     cy="459"
     id="circle147"
     d="m 607,459 c 0,3.31371 -2.68629,6 -6,6 -3.31371,0 -6,-2.68629 -6,-6 0,-3.31371 2.68629,-6 6,-6 3.31371,0 6,2.68629 6,6 z"
     sodipodi:cx="601"
     sodipodi:cy="459"
     sodipodi:rx="6"
     sodipodi:ry="6"
     transform="matrix(0.7056,0,0,0.7056,102.4718,65.5129)" />
  <circle
     style="fill:none;stroke:#000000;stroke-width:1"
     r="6"
     cx="601"
     cy="459"
     id="circle149"
     d="m 607,459 c 0,3.31371 -2.68629,6 -6,6 -3.31371,0 -6,-2.68629 -6,-6 0,-3.31371 2.68629,-6 6,-6 3.31371,0 6,2.68629 6,6 z"
     sodipodi:cx="601"
     sodipodi:cy="459"
     sodipodi:rx="6"
     sodipodi:ry="6"
     transform="matrix(0.7056,0,0,0.7056,102.4718,65.5129)" />
  <circle
     style="fill:#ffe19b;stroke:none"
     r="6"
     cx="138"
     cy="318"
     id="circle151"
     d="m 144,318 c 0,3.31371 -2.68629,6 -6,6 -3.31371,0 -6,-2.68629 -6,-6 0,-3.31371 2.68629,-6 6,-6 3.31371,0 6,2.68629 6,6 z"
     sodipodi:cx="138"
     sodipodi:cy="318"
     sodipodi:rx="6"
     sodipodi:ry="6"
     transform="matrix(0.7056,0,0,0.7056,102.4718,65.5129)" />
  <circle
     style="fill:none;stroke:#000000;stroke-width:1"
     r="6"
     cx="138"
     cy="318"
     id="circle153"
     d="m 144,318 c 0,3.31371 -2.68629,6 -6,6 -3.31371,0 -6,-2.68629 -6,-6 0,-3.31371 2.68629,-6 6,-6 3.31371,0 6,2.68629 6,6 z"
     sodipodi:cx="138"
     sodipodi:cy="318"
     sodipodi:rx="6"
     sodipodi:ry="6"
     transform="matrix(0.7056,0,0,0.7056,102.4718,65.5129)" />
  <circle
     style="fill:#ffe19b;stroke:none"
     r="6"
     cx="691"
     cy="357"
     id="circle155"
     d="m 697,357 c 0,3.31371 -2.68629,6 -6,6 -3.31371,0 -6,-2.68629 -6,-6 0,-3.31371 2.68629,-6 6,-6 3.31371,0 6,2.68629 6,6 z"
     sodipodi:cx="691"
     sodipodi:cy="357"
     sodipodi:rx="6"
     sodipodi:ry="6"
     transform="matrix(0.7056,0,0,0.7056,102.4718,65.5129)" />
  <circle
     style="fill:none;stroke:#000000;stroke-width:1"
     r="6"
     cx="691"
     cy="357"
     id="circle157"
     d="m 697,357 c 0,3.31371 -2.68629,6 -6,6 -3.31371,0 -6,-2.68629 -6,-6 0,-3.31371 2.68629,-6 6,-6 3.31371,0 6,2.68629 6,6 z"
     sodipodi:cx="691"
     sodipodi:cy="357"
     sodipodi:rx="6"
     sodipodi:ry="6"
     transform="matrix(0.7056,0,0,0.7056,102.4718,65.5129)" />
  <circle
     style="fill:#ffff9a;stroke:none"
     r="6"
     cx="894"
     cy="476"
     id="circle159"
     d="m 900,476 c 0,3.31371 -2.68629,6 -6,6 -3.31371,0 -6,-2.68629 -6,-6 0,-3.31371 2.68629,-6 6,-6 3.31371,0 6,2.68629 6,6 z"
     sodipodi:cx="894"
     sodipodi:cy="476"
     sodipodi:rx="6"
     sodipodi:ry="6"
     transform="matrix(0.7056,0,0,0.7056,102.4718,65.5129)" />
  <circle
     style="fill:none;stroke:#000000;stroke-width:1"
     r="6"
     cx="894"
     cy="476"
     id="circle161"
     d="m 900,476 c 0,3.31371 -2.68629,6 -6,6 -3.31371,0 -6,-2.68629 -6,-6 0,-3.31371 2.68629,-6 6,-6 3.31371,0 6,2.68629 6,6 z"
     sodipodi:cx="894"
     sodipodi:cy="476"
     sodipodi:rx="6"
     sodipodi:ry="6"
     transform="matrix(0.7056,0,0,0.7056,102.4718,65.5129)" />
  <circle
     style="fill:#d86f51;stroke:none"
     r="6"
     cx="420"
     cy="451"
     id="circle163"
     d="m 426,451 c 0,3.31371 -2.68629,6 -6,6 -3.31371,0 -6,-2.68629 -6,-6 0,-3.31371 2.68629,-6 6,-6 3.31371,0 6,2.68629 6,6 z"
     sodipodi:cx="420"
     sodipodi:cy="451"
     sodipodi:rx="6"
     sodipodi:ry="6"
     transform="matrix(0.7056,0,0,0.7056,102.4718,65.5129)" />
  <circle
     style="fill:none;stroke:#000000;stroke-width:1"
     r="6"
     cx="420"
     cy="451"
     id="circle165"
     d="m 426,451 c 0,3.31371 -2.68629,6 -6,6 -3.31371,0 -6,-2.68629 -6,-6 0,-3.31371 2.68629,-6 6,-6 3.31371,0 6,2.68629 6,6 z"
     sodipodi:cx="420"
     sodipodi:cy="451"
     sodipodi:rx="6"
     sodipodi:ry="6"
     transform="matrix(0.7056,0,0,0.7056,102.4718,65.5129)" />
  <circle
     style="fill:#a82338;stroke:none"
     r="6"
     cx="104"
     cy="181"
     id="circle167"
     d="m 110,181 c 0,3.31371 -2.68629,6 -6,6 -3.31371,0 -6,-2.68629 -6,-6 0,-3.31371 2.68629,-6 6,-6 3.31371,0 6,2.68629 6,6 z"
     sodipodi:cx="104"
     sodipodi:cy="181"
     sodipodi:rx="6"
     sodipodi:ry="6"
     transform="matrix(0.7056,0,0,0.7056,102.4718,65.5129)" />
  <circle
     style="fill:none;stroke:#000000;stroke-width:1"
     r="6"
     cx="104"
     cy="181"
     id="circle169"
     d="m 110,181 c 0,3.31371 -2.68629,6 -6,6 -3.31371,0 -6,-2.68629 -6,-6 0,-3.31371 2.68629,-6 6,-6 3.31371,0 6,2.68629 6,6 z"
     sodipodi:cx="104"
     sodipodi:cy="181"
     sodipodi:rx="6"
     sodipodi:ry="6"
     transform="matrix(0.7056,0,0,0.7056,102.4718,65.5129)" />
  <circle
     style="fill:#0d0d0d;stroke:none"
     r="6"
     cx="842"
     cy="447"
     id="circle171"
     d="m 848,447 c 0,3.31371 -2.68629,6 -6,6 -3.31371,0 -6,-2.68629 -6,-6 0,-3.31371 2.68629,-6 6,-6 3.31371,0 6,2.68629 6,6 z"
     sodipodi:cx="842"
     sodipodi:cy="447"
     sodipodi:rx="6"
     sodipodi:ry="6"
     transform="matrix(0.7056,0,0,0.7056,102.4718,65.5129)" />
  <circle
     style="fill:none;stroke:#000000;stroke-width:1"
     r="6"
     cx="842"
     cy="447"
     id="circle173"
     d="m 848,447 c 0,3.31371 -2.68629,6 -6,6 -3.31371,0 -6,-2.68629 -6,-6 0,-3.31371 2.68629,-6 6,-6 3.31371,0 6,2.68629 6,6 z"
     sodipodi:cx="842"
     sodipodi:cy="447"
     sodipodi:rx="6"
     sodipodi:ry="6"
     transform="matrix(0.7056,0,0,0.7056,102.4718,65.5129)" />
  <circle
     style="fill:#0d0d0d;stroke:none"
     r="6"
     cx="656"
     cy="408"
     id="circle175"
     d="m 662,408 c 0,3.31371 -2.68629,6 -6,6 -3.31371,0 -6,-2.68629 -6,-6 0,-3.31371 2.68629,-6 6,-6 3.31371,0 6,2.68629 6,6 z"
     sodipodi:cx="656"
     sodipodi:cy="408"
     sodipodi:rx="6"
     sodipodi:ry="6"
     transform="matrix(0.7056,0,0,0.7056,102.4718,65.5129)" />
  <circle
     style="fill:none;stroke:#000000;stroke-width:1"
     r="6"
     cx="656"
     cy="408"
     id="circle177"
     d="m 662,408 c 0,3.31371 -2.68629,6 -6,6 -3.31371,0 -6,-2.68629 -6,-6 0,-3.31371 2.68629,-6 6,-6 3.31371,0 6,2.68629 6,6 z"
     sodipodi:cx="656"
     sodipodi:cy="408"
     sodipodi:rx="6"
     sodipodi:ry="6"
     transform="matrix(0.7056,0,0,0.7056,102.4718,65.5129)" />
  <circle
     style="fill:#0d0d0d;stroke:none"
     r="6"
     cx="455"
     cy="407"
     id="circle179"
     d="m 461,407 c 0,3.31371 -2.68629,6 -6,6 -3.31371,0 -6,-2.68629 -6,-6 0,-3.31371 2.68629,-6 6,-6 3.31371,0 6,2.68629 6,6 z"
     sodipodi:cx="455"
     sodipodi:cy="407"
     sodipodi:rx="6"
     sodipodi:ry="6"
     transform="matrix(0.7056,0,0,0.7056,102.4718,65.5129)" />
  <circle
     style="fill:none;stroke:#000000;stroke-width:1"
     r="6"
     cx="455"
     cy="407"
     id="circle181"
     d="m 461,407 c 0,3.31371 -2.68629,6 -6,6 -3.31371,0 -6,-2.68629 -6,-6 0,-3.31371 2.68629,-6 6,-6 3.31371,0 6,2.68629 6,6 z"
     sodipodi:cx="455"
     sodipodi:cy="407"
     sodipodi:rx="6"
     sodipodi:ry="6"
     transform="matrix(0.7056,0,0,0.7056,102.4718,65.5129)" />
  <circle
     style="fill:#ffab62;stroke:none"
     r="6"
     cx="594"
     cy="290"
     id="circle183"
     d="m 600,290 c 0,3.31371 -2.68629,6 -6,6 -3.31371,0 -6,-2.68629 -6,-6 0,-3.31371 2.68629,-6 6,-6 3.31371,0 6,2.68629 6,6 z"
     sodipodi:cx="594"
     sodipodi:cy="290"
     sodipodi:rx="6"
     sodipodi:ry="6"
     transform="matrix(0.7056,0,0,0.7056,102.4718,65.5129)" />
  <circle
     style="fill:none;stroke:#000000;stroke-width:1"
     r="6"
     cx="594"
     cy="290"
     id="circle185"
     d="m 600,290 c 0,3.31371 -2.68629,6 -6,6 -3.31371,0 -6,-2.68629 -6,-6 0,-3.31371 2.68629,-6 6,-6 3.31371,0 6,2.68629 6,6 z"
     sodipodi:cx="594"
     sodipodi:cy="290"
     sodipodi:rx="6"
     sodipodi:ry="6"
     transform="matrix(0.7056,0,0,0.7056,102.4718,65.5129)" />
  <circle
     style="fill:#d86f51;stroke:none"
     r="6"
     cx="752"
     cy="517"
     id="circle187"
     d="m 758,517 c 0,3.31371 -2.68629,6 -6,6 -3.31371,0 -6,-2.68629 -6,-6 0,-3.31371 2.68629,-6 6,-6 3.31371,0 6,2.68629 6,6 z"
     sodipodi:cx="752"
     sodipodi:cy="517"
     sodipodi:rx="6"
     sodipodi:ry="6"
     transform="matrix(0.7056,0,0,0.7056,102.4718,65.5129)" />
  <circle
     style="fill:none;stroke:#000000;stroke-width:1"
     r="6"
     cx="752"
     cy="517"
     id="circle189"
     d="m 758,517 c 0,3.31371 -2.68629,6 -6,6 -3.31371,0 -6,-2.68629 -6,-6 0,-3.31371 2.68629,-6 6,-6 3.31371,0 6,2.68629 6,6 z"
     sodipodi:cx="752"
     sodipodi:cy="517"
     sodipodi:rx="6"
     sodipodi:ry="6"
     transform="matrix(0.7056,0,0,0.7056,102.4718,65.5129)" />
  <line
     x1="102.4718"
     x2="102.4718"
     y1="65.512901"
     style="fill:none;stroke:#000000;stroke-width:2.11680007"
     y2="65.512901"
     id="line191" />
</svg>
