<?xml version="1.0"?>

<!DOCTYPE svg PUBLIC '-//W3C//DTD SVG 1.0//EN' 'http://www.w3.org/TR/2001/REC-SVG-20010904/DTD/svg10.dtd'>
<svg xmlns:xlink="http://www.w3.org/1999/xlink" style="fill-opacity:1; color-rendering:auto; color-interpolation:auto; stroke:black; text-rendering:auto; stroke-linecap:square; stroke-miterlimit:10; stroke-opacity:1; shape-rendering:auto; fill:black; stroke-dasharray:none; font-weight:normal; stroke-width:1; font-family:&apos;Dialog&apos;; font-style:normal; stroke-linejoin:miter; font-size:12; stroke-dashoffset:0; image-rendering:auto;" xmlns="http://www.w3.org/2000/svg">
  <!--Generated by the Batik Graphics2D SVG Generator-->
  <defs id="genericDefs" />
  <g>
    <g style="fill:white; stroke:white;">
      <rect x="0" y="0" width="892" style="stroke:none;" height="523" />
    </g>
    <g transform="matrix(0.7056,0,0,0.7056,138.6243,9.193)" style="fill:rgb(255,255,154); text-rendering:geometricPrecision; image-rendering:optimizeQuality; stroke:rgb(255,255,154); stroke-width:3;">
      <line x1="887" x2="894" y1="543" style="fill:none;" y2="476" />
      <line x1="601" x2="656" y1="459" style="fill:none;" y2="408" />
      <line x1="500" x2="301" y1="590" style="fill:none;" y2="586" />
      <line x1="104" x2="50" y1="181" style="fill:none; stroke:rgb(255,225,155);" y2="271" />
      <line x1="752" x2="707" y1="517" style="fill:none;" y2="559" />
      <line x1="842" x2="656" y1="447" style="fill:none;" y2="408" />
      <line x1="802" x2="878" y1="619" style="fill:none;" y2="620" />
      <line x1="50" x2="138" y1="271" style="fill:none; stroke:rgb(255,225,155);" y2="318" />
      <line x1="194" x2="133" y1="5" style="fill:none;" y2="127" />
      <line x1="656" x2="802" y1="408" style="fill:none;" y2="619" />
      <line x1="233" x2="283" y1="234" style="fill:none;" y2="335" />
      <line x1="301" x2="420" y1="586" style="fill:none; stroke:rgb(255,225,155);" y2="451" />
      <line x1="420" x2="455" y1="451" style="fill:none; stroke:rgb(255,225,155);" y2="407" />
      <line x1="894" x2="752" y1="476" style="fill:none;" y2="517" />
      <line x1="594" x2="691" y1="290" style="fill:none; stroke:rgb(255,171,98);" y2="357" />
      <line x1="301" x2="86" y1="586" style="fill:none;" y2="702" />
      <line x1="283" x2="352" y1="335" style="fill:none; stroke:rgb(255,171,98);" y2="351" />
      <line x1="138" x2="233" y1="318" style="fill:none;" y2="234" />
      <line x1="878" x2="887" y1="620" style="fill:none;" y2="543" />
      <line x1="601" x2="455" y1="459" style="fill:none;" y2="407" />
      <line x1="842" x2="691" y1="447" style="fill:none; stroke:rgb(255,225,155);" y2="357" />
      <line x1="138" x2="283" y1="318" style="fill:none; stroke:rgb(255,171,98);" y2="335" />
      <line x1="802" x2="707" y1="619" style="fill:none;" y2="559" />
      <line x1="455" x2="594" y1="407" style="fill:none; stroke:rgb(255,171,98);" y2="290" />
      <line x1="752" x2="842" y1="517" style="fill:none; stroke:rgb(255,225,155);" y2="447" />
      <line x1="455" x2="604" y1="407" style="fill:none;" y2="393" />
      <line x1="352" x2="420" y1="351" style="fill:none;" y2="451" />
      <line x1="233" x2="104" y1="234" style="fill:none;" y2="181" />
      <line x1="133" x2="104" y1="127" style="fill:none; stroke:rgb(255,225,155);" y2="181" />
      <line x1="233" x2="352" y1="234" style="fill:none;" y2="351" />
      <line x1="842" x2="887" y1="447" style="fill:none; stroke:rgb(255,225,155);" y2="543" />
      <line x1="604" x2="594" y1="393" style="fill:none; stroke:rgb(255,225,155);" y2="290" />
      <line x1="656" x2="604" y1="408" style="fill:none;" y2="393" />
      <line x1="455" x2="352" y1="407" style="fill:none; stroke:rgb(255,171,98);" y2="351" />
      <line x1="601" x2="500" y1="459" style="fill:none;" y2="590" />
      <line x1="691" x2="656" y1="357" style="fill:none;" y2="408" />
      <line x1="707" x2="720" y1="559" style="fill:none;" y2="649" />
      <circle style="fill:rgb(255,225,155); stroke:none; stroke-width:1;" r="6" cx="752" cy="517" />
      <circle style="fill:none; stroke:black; stroke-width:1;" r="6" cx="752" cy="517" />
      <circle style="fill:rgb(216,111,81); stroke:none; stroke-width:1;" r="6" cx="352" cy="351" />
      <circle style="fill:none; stroke:black; stroke-width:1;" r="6" cx="352" cy="351" />
      <circle style="stroke-width:1; stroke:none;" r="6" cx="720" cy="649" />
      <circle style="fill:none; stroke:black; stroke-width:1;" r="6" cx="720" cy="649" />
      <circle style="fill:rgb(216,111,81); stroke:none; stroke-width:1;" r="6" cx="138" cy="318" />
      <circle style="fill:none; stroke:black; stroke-width:1;" r="6" cx="138" cy="318" />
      <circle style="fill:rgb(216,111,81); stroke:none; stroke-width:1;" r="6" cx="691" cy="357" />
      <circle style="fill:none; stroke:black; stroke-width:1;" r="6" cx="691" cy="357" />
      <circle style="stroke-width:1; stroke:none;" r="6" cx="601" cy="459" />
      <circle style="fill:none; stroke:black; stroke-width:1;" r="6" cx="601" cy="459" />
      <circle style="fill:rgb(255,225,155); stroke:none; stroke-width:1;" r="6" cx="707" cy="559" />
      <circle style="fill:none; stroke:black; stroke-width:1;" r="6" cx="707" cy="559" />
      <circle style="fill:rgb(255,171,98); stroke:none; stroke-width:1;" r="6" cx="301" cy="586" />
      <circle style="fill:none; stroke:black; stroke-width:1;" r="6" cx="301" cy="586" />
      <circle style="stroke-width:1; stroke:none;" r="6" cx="878" cy="620" />
      <circle style="fill:none; stroke:black; stroke-width:1;" r="6" cx="878" cy="620" />
      <circle style="fill:rgb(255,171,98); stroke:none; stroke-width:1;" r="6" cx="50" cy="271" />
      <circle style="fill:none; stroke:black; stroke-width:1;" r="6" cx="50" cy="271" />
      <circle style="fill:rgb(255,171,98); stroke:none; stroke-width:1;" r="6" cx="420" cy="451" />
      <circle style="fill:none; stroke:black; stroke-width:1;" r="6" cx="420" cy="451" />
      <circle style="fill:rgb(216,111,81); stroke:none; stroke-width:1;" r="6" cx="594" cy="290" />
      <circle style="fill:none; stroke:black; stroke-width:1;" r="6" cx="594" cy="290" />
      <circle style="fill:lime; stroke:none; stroke-width:1;" r="6" cx="455" cy="407" />
      <circle style="fill:none; stroke:black; stroke-width:1;" r="6" cx="455" cy="407" />
      <circle style="fill:rgb(255,225,155); stroke:none; stroke-width:1;" r="6" cx="133" cy="127" />
      <circle style="fill:none; stroke:black; stroke-width:1;" r="6" cx="133" cy="127" />
      <circle style="fill:rgb(255,225,155); stroke:none; stroke-width:1;" r="6" cx="233" cy="234" />
      <circle style="fill:none; stroke:black; stroke-width:1;" r="6" cx="233" cy="234" />
      <circle style="fill:rgb(255,225,155); stroke:none; stroke-width:1;" r="6" cx="194" cy="5" />
      <circle style="fill:none; stroke:black; stroke-width:1;" r="6" cx="194" cy="5" />
      <circle style="fill:rgb(216,111,81); stroke:none; stroke-width:1;" r="6" cx="842" cy="447" />
      <circle style="fill:none; stroke:black; stroke-width:1;" r="6" cx="842" cy="447" />
      <circle style="stroke-width:1; stroke:none;" r="6" cx="500" cy="590" />
      <circle style="fill:none; stroke:black; stroke-width:1;" r="6" cx="500" cy="590" />
      <circle style="fill:rgb(216,111,81); stroke:none; stroke-width:1;" r="6" cx="283" cy="335" />
      <circle style="fill:none; stroke:black; stroke-width:1;" r="6" cx="283" cy="335" />
      <circle style="fill:rgb(255,225,155); stroke:none; stroke-width:1;" r="6" cx="604" cy="393" />
      <circle style="fill:none; stroke:black; stroke-width:1;" r="6" cx="604" cy="393" />
      <circle style="fill:rgb(255,225,155); stroke:none; stroke-width:1;" r="6" cx="656" cy="408" />
      <circle style="fill:none; stroke:black; stroke-width:1;" r="6" cx="656" cy="408" />
      <circle style="fill:rgb(255,171,98); stroke:none; stroke-width:1;" r="6" cx="104" cy="181" />
      <circle style="fill:none; stroke:black; stroke-width:1;" r="6" cx="104" cy="181" />
      <circle style="fill:rgb(255,225,155); stroke:none; stroke-width:1;" r="6" cx="86" cy="702" />
      <circle style="fill:none; stroke:black; stroke-width:1;" r="6" cx="86" cy="702" />
      <circle style="fill:rgb(255,225,155); stroke:none; stroke-width:1;" r="6" cx="887" cy="543" />
      <circle style="fill:none; stroke:black; stroke-width:1;" r="6" cx="887" cy="543" />
      <circle style="stroke-width:1; stroke:none;" r="6" cx="894" cy="476" />
      <circle style="fill:none; stroke:black; stroke-width:1;" r="6" cx="894" cy="476" />
      <circle style="stroke-width:1; stroke:none;" r="6" cx="802" cy="619" />
      <circle style="fill:none; stroke:black; stroke-width:1;" r="6" cx="802" cy="619" />
      <line x1="0" x2="0" y1="0" style="fill:none; stroke:black;" y2="0" />
    </g>
  </g>
</svg>
