<?xml version="1.0"?>

<!DOCTYPE svg PUBLIC '-//W3C//DTD SVG 1.0//EN' 'http://www.w3.org/TR/2001/REC-SVG-20010904/DTD/svg10.dtd'>
<svg xmlns:xlink="http://www.w3.org/1999/xlink" style="fill-opacity:1; color-rendering:auto; color-interpolation:auto; stroke:black; text-rendering:auto; stroke-linecap:square; stroke-miterlimit:10; stroke-opacity:1; shape-rendering:auto; fill:black; stroke-dasharray:none; font-weight:normal; stroke-width:1; font-family:&apos;Dialog&apos;; font-style:normal; stroke-linejoin:miter; font-size:12; stroke-dashoffset:0; image-rendering:auto;" xmlns="http://www.w3.org/2000/svg">
  <!--Generated by the Batik Graphics2D SVG Generator-->
  <defs id="genericDefs" />
  <g>
    <g style="fill:white; stroke:white;">
      <rect x="0" y="0" width="892" style="stroke:none;" height="523" />
    </g>
    <g transform="matrix(0.7056,0,0,0.7056,138.6243,9.193)" style="fill:rgb(255,255,154); text-rendering:geometricPrecision; image-rendering:optimizeQuality; stroke:rgb(255,255,154); stroke-width:3;">
      <line x1="887" x2="894" y1="543" style="fill:none;" y2="476" />
      <path d="M888.7747 487.5194 L896.7314 488.3507 L893.5844 479.9783 Z" style="fill:none; fill-rule:evenodd;" />
      <path d="M888.7747 487.5194 L896.7314 488.3507 L893.5844 479.9783 Z" style="fill-rule:evenodd; stroke:none;" />
      <line x1="601" x2="656" y1="459" style="fill:none;" y2="408" />
      <path d="M644.481 413.2262 L649.9205 419.0923 L653.067 410.7198 Z" style="fill:none; fill-rule:evenodd;" />
      <path d="M644.481 413.2262 L649.9205 419.0923 L653.067 410.7198 Z" style="fill-rule:evenodd; stroke:none;" />
      <line x1="500" x2="301" y1="590" style="fill:none;" y2="586" />
      <path d="M312.9172 590.2404 L313.078 582.2419 L304.9992 586.0804 Z" style="fill:none; fill-rule:evenodd;" />
      <path d="M312.9172 590.2404 L313.078 582.2419 L304.9992 586.0804 Z" style="fill-rule:evenodd; stroke:none;" />
      <line x1="104" x2="50" y1="181" style="fill:none;" y2="271" />
      <path d="M59.6039 262.7681 L52.744 258.6521 L52.058 267.57 Z" style="fill:none; fill-rule:evenodd;" />
      <path d="M59.6039 262.7681 L52.744 258.6521 L52.058 267.57 Z" style="fill-rule:evenodd; stroke:none;" />
      <line x1="752" x2="707" y1="517" style="fill:none;" y2="559" />
      <path d="M718.502 553.7364 L713.0434 547.8879 L709.9242 556.2708 Z" style="fill:none; fill-rule:evenodd;" />
      <path d="M718.502 553.7364 L713.0434 547.8879 L709.9242 556.2708 Z" style="fill-rule:evenodd; stroke:none;" />
      <line x1="842" x2="656" y1="447" style="fill:none;" y2="408" />
      <path d="M666.9238 414.3774 L668.5655 406.5477 L659.9149 408.8209 Z" style="fill:none; fill-rule:evenodd;" />
      <path d="M666.9238 414.3774 L668.5655 406.5477 L659.9149 408.8209 Z" style="fill-rule:evenodd; stroke:none;" />
      <line x1="802" x2="878" y1="619" style="fill:none;" y2="620" />
      <path d="M866.0536 615.8425 L865.9484 623.8418 L874.0004 619.9474 Z" style="fill:none; fill-rule:evenodd;" />
      <path d="M866.0536 615.8425 L865.9484 623.8418 L874.0004 619.9474 Z" style="fill-rule:evenodd; stroke:none;" />
      <line x1="50" x2="138" y1="271" style="fill:none;" y2="318" />
      <path d="M129.2995 308.8184 L125.5307 315.875 L134.4717 316.1156 Z" style="fill:none; fill-rule:evenodd;" />
      <path d="M129.2995 308.8184 L125.5307 315.875 L134.4717 316.1156 Z" style="fill-rule:evenodd; stroke:none;" />
      <line x1="194" x2="133" y1="5" style="fill:none;" y2="127" />
      <path d="M141.9443 118.0557 L134.7888 114.478 L134.7888 123.4223 Z" style="fill:none; fill-rule:evenodd;" />
      <path d="M141.9443 118.0557 L134.7888 114.478 L134.7888 123.4223 Z" style="fill-rule:evenodd; stroke:none;" />
      <line x1="656" x2="802" y1="408" style="fill:none;" y2="619" />
      <path d="M798.4612 606.856 L791.8826 611.408 L799.724 615.7107 Z" style="fill:none; fill-rule:evenodd;" />
      <path d="M798.4612 606.856 L791.8826 611.408 L799.724 615.7107 Z" style="fill-rule:evenodd; stroke:none;" />
      <line x1="233" x2="283" y1="234" style="fill:none;" y2="335" />
      <path d="M281.2609 322.471 L274.0913 326.0203 L281.2253 331.4152 Z" style="fill:none; fill-rule:evenodd;" />
      <path d="M281.2609 322.471 L274.0913 326.0203 L281.2253 331.4152 Z" style="fill-rule:evenodd; stroke:none;" />
      <line x1="301" x2="420" y1="586" style="fill:none;" y2="451" />
      <path d="M409.0643 457.3569 L415.0656 462.647 L417.355 454.0006 Z" style="fill:none; fill-rule:evenodd;" />
      <path d="M409.0643 457.3569 L415.0656 462.647 L417.355 454.0006 Z" style="fill-rule:evenodd; stroke:none;" />
      <line x1="420" x2="455" y1="451" style="fill:none;" y2="407" />
      <path d="M444.3993 413.9011 L450.6601 418.8813 L452.5099 410.1304 Z" style="fill:none; fill-rule:evenodd;" />
      <path d="M444.3993 413.9011 L450.6601 418.8813 L452.5099 410.1304 Z" style="fill-rule:evenodd; stroke:none;" />
      <line x1="894" x2="752" y1="476" style="fill:none;" y2="517" />
      <path d="M764.6387 517.5142 L762.4194 509.8282 L755.843 515.8904 Z" style="fill:none; fill-rule:evenodd;" />
      <path d="M764.6387 517.5142 L762.4194 509.8282 L755.843 515.8904 Z" style="fill-rule:evenodd; stroke:none;" />
      <line x1="594" x2="691" y1="290" style="fill:none;" y2="357" />
      <path d="M683.3997 346.8889 L678.8531 353.4713 L687.7088 354.7267 Z" style="fill:none; fill-rule:evenodd;" />
      <path d="M683.3997 346.8889 L678.8531 353.4713 L687.7088 354.7267 Z" style="fill-rule:evenodd; stroke:none;" />
      <line x1="301" x2="86" y1="586" style="fill:none;" y2="702" />
      <path d="M98.4602 699.8223 L94.6616 692.7817 L89.5203 700.1006 Z" style="fill:none; fill-rule:evenodd;" />
      <path d="M98.4602 699.8223 L94.6616 692.7817 L89.5203 700.1006 Z" style="fill-rule:evenodd; stroke:none;" />
      <line x1="283" x2="352" y1="335" style="fill:none;" y2="351" />
      <path d="M341.2137 344.3927 L339.4066 352.1859 L348.1034 350.0964 Z" style="fill:none; fill-rule:evenodd;" />
      <path d="M341.2137 344.3927 L339.4066 352.1859 L348.1034 350.0964 Z" style="fill-rule:evenodd; stroke:none;" />
      <line x1="138" x2="233" y1="318" style="fill:none;" y2="234" />
      <path d="M221.3606 238.9523 L226.6599 244.9454 L230.0034 236.6496 Z" style="fill:none; fill-rule:evenodd;" />
      <path d="M221.3606 238.9523 L226.6599 244.9454 L230.0034 236.6496 Z" style="fill-rule:evenodd; stroke:none;" />
      <line x1="878" x2="887" y1="620" style="fill:none;" y2="543" />
      <path d="M881.6339 554.4545 L889.5798 555.3832 L886.5356 546.973 Z" style="fill:none; fill-rule:evenodd;" />
      <path d="M881.6339 554.4545 L889.5798 555.3832 L886.5356 546.973 Z" style="fill-rule:evenodd; stroke:none;" />
      <line x1="601" x2="455" y1="459" style="fill:none;" y2="407" />
      <path d="M464.9623 414.7944 L467.6465 407.2581 L458.7681 408.3421 Z" style="fill:none; fill-rule:evenodd;" />
      <path d="M464.9623 414.7944 L467.6465 407.2581 L458.7681 408.3421 Z" style="fill-rule:evenodd; stroke:none;" />
      <line x1="842" x2="691" y1="447" style="fill:none;" y2="357" />
      <path d="M699.26 366.5798 L703.3559 359.7078 L694.436 359.0479 Z" style="fill:none; fill-rule:evenodd;" />
      <path d="M699.26 366.5798 L703.3559 359.7078 L694.436 359.0479 Z" style="fill-rule:evenodd; stroke:none;" />
      <line x1="138" x2="283" y1="318" style="fill:none;" y2="335" />
      <path d="M271.5474 329.6299 L270.6158 337.5755 L279.0272 334.5342 Z" style="fill:none; fill-rule:evenodd;" />
      <path d="M271.5474 329.6299 L270.6158 337.5755 L279.0272 334.5342 Z" style="fill-rule:evenodd; stroke:none;" />
      <line x1="802" x2="707" y1="619" style="fill:none;" y2="559" />
      <path d="M715.0099 568.7899 L719.2819 562.0259 L710.382 561.136 Z" style="fill:none; fill-rule:evenodd;" />
      <path d="M715.0099 568.7899 L719.2819 562.0259 L710.382 561.136 Z" style="fill-rule:evenodd; stroke:none;" />
      <line x1="455" x2="594" y1="407" style="fill:none;" y2="290" />
      <path d="M582.2435 294.6674 L587.3952 300.7878 L590.9398 292.5759 Z" style="fill:none; fill-rule:evenodd;" />
      <path d="M582.2435 294.6674 L587.3952 300.7878 L590.9398 292.5759 Z" style="fill-rule:evenodd; stroke:none;" />
      <line x1="752" x2="842" y1="517" style="fill:none;" y2="447" />
      <path d="M830.072 451.2099 L834.9835 457.5247 L838.8426 449.4557 Z" style="fill:none; fill-rule:evenodd;" />
      <path d="M830.072 451.2099 L834.9835 457.5247 L838.8426 449.4557 Z" style="fill-rule:evenodd; stroke:none;" />
      <line x1="455" x2="604" y1="407" style="fill:none;" y2="393" />
      <path d="M591.6784 390.1401 L592.4268 398.105 L600.0175 393.3742 Z" style="fill:none; fill-rule:evenodd;" />
      <path d="M591.6784 390.1401 L592.4268 398.105 L600.0175 393.3742 Z" style="fill-rule:evenodd; stroke:none;" />
      <line x1="352" x2="420" y1="351" style="fill:none;" y2="451" />
      <path d="M416.56 438.8276 L409.9446 443.3261 L417.7508 447.6923 Z" style="fill:none; fill-rule:evenodd;" />
      <path d="M416.56 438.8276 L409.9446 443.3261 L417.7508 447.6923 Z" style="fill-rule:evenodd; stroke:none;" />
      <line x1="233" x2="104" y1="234" style="fill:none;" y2="181" />
      <path d="M113.5796 189.2602 L116.6198 181.8604 L107.6999 182.5201 Z" style="fill:none; fill-rule:evenodd;" />
      <path d="M113.5796 189.2602 L116.6198 181.8604 L107.6999 182.5201 Z" style="fill-rule:evenodd; stroke:none;" />
      <line x1="133" x2="104" y1="127" style="fill:none;" y2="181" />
      <path d="M113.2015 172.3206 L106.1535 168.5356 L105.8925 177.476 Z" style="fill:none; fill-rule:evenodd;" />
      <path d="M113.2015 172.3206 L106.1535 168.5356 L105.8925 177.476 Z" style="fill-rule:evenodd; stroke:none;" />
      <line x1="233" x2="352" y1="234" style="fill:none;" y2="351" />
      <path d="M346.2475 339.7346 L340.6388 345.4392 L349.1477 348.1956 Z" style="fill:none; fill-rule:evenodd;" />
      <path d="M346.2475 339.7346 L340.6388 345.4392 L349.1477 348.1956 Z" style="fill-rule:evenodd; stroke:none;" />
      <line x1="842" x2="887" y1="447" style="fill:none;" y2="543" />
      <path d="M885.5286 530.4368 L878.285 533.8322 L885.3022 539.3782 Z" style="fill:none; fill-rule:evenodd;" />
      <path d="M885.5286 530.4368 L878.285 533.8322 L885.3022 539.3782 Z" style="fill-rule:evenodd; stroke:none;" />
      <line x1="604" x2="594" y1="393" style="fill:none;" y2="290" />
      <path d="M591.1783 302.3304 L599.1409 301.5573 L594.3865 293.9813 Z" style="fill:none; fill-rule:evenodd;" />
      <path d="M591.1783 302.3304 L599.1409 301.5573 L594.3865 293.9813 Z" style="fill-rule:evenodd; stroke:none;" />
      <line x1="656" x2="604" y1="408" style="fill:none;" y2="393" />
      <path d="M614.4213 400.1692 L616.6385 392.4826 L607.8433 394.1086 Z" style="fill:none; fill-rule:evenodd;" />
      <path d="M614.4213 400.1692 L616.6385 392.4826 L607.8433 394.1086 Z" style="fill-rule:evenodd; stroke:none;" />
      <line x1="455" x2="352" y1="407" style="fill:none;" y2="351" />
      <path d="M360.6319 360.2461 L364.4532 353.2177 L355.5142 352.9106 Z" style="fill:none; fill-rule:evenodd;" />
      <path d="M360.6319 360.2461 L364.4532 353.2177 L355.5142 352.9106 Z" style="fill-rule:evenodd; stroke:none;" />
      <line x1="601" x2="500" y1="459" style="fill:none;" y2="590" />
      <path d="M510.4948 582.939 L504.1592 578.0543 L502.4424 586.8322 Z" style="fill:none; fill-rule:evenodd;" />
      <path d="M510.4948 582.939 L504.1592 578.0543 L502.4424 586.8322 Z" style="fill-rule:evenodd; stroke:none;" />
      <line x1="691" x2="656" y1="357" style="fill:none;" y2="408" />
      <path d="M666.0881 400.3692 L659.4921 395.8425 L658.2634 404.7019 Z" style="fill:none; fill-rule:evenodd;" />
      <path d="M666.0881 400.3692 L659.4921 395.8425 L658.2634 404.7019 Z" style="fill-rule:evenodd; stroke:none;" />
      <line x1="707" x2="720" y1="559" style="fill:none;" y2="649" />
      <path d="M722.2434 636.5514 L714.3256 637.6951 L719.4282 645.0411 Z" style="fill:none; fill-rule:evenodd;" />
      <path d="M722.2434 636.5514 L714.3256 637.6951 L719.4282 645.0411 Z" style="fill-rule:evenodd; stroke:none;" />
      <circle style="fill:rgb(13,13,13); stroke:none; stroke-width:1;" r="6" cx="752" cy="517" />
      <circle style="fill:none; stroke:black; stroke-width:1;" r="6" cx="752" cy="517" />
      <circle style="fill:rgb(13,13,13); stroke:none; stroke-width:1;" r="6" cx="352" cy="351" />
      <circle style="fill:none; stroke:black; stroke-width:1;" r="6" cx="352" cy="351" />
      <circle style="fill:rgb(168,35,56); stroke:none; stroke-width:1;" r="6" cx="720" cy="649" />
      <circle style="fill:none; stroke:black; stroke-width:1;" r="6" cx="720" cy="649" />
      <circle style="fill:rgb(13,13,13); stroke:none; stroke-width:1;" r="6" cx="138" cy="318" />
      <circle style="fill:none; stroke:black; stroke-width:1;" r="6" cx="138" cy="318" />
      <circle style="fill:rgb(13,13,13); stroke:none; stroke-width:1;" r="6" cx="691" cy="357" />
      <circle style="fill:none; stroke:black; stroke-width:1;" r="6" cx="691" cy="357" />
      <circle style="fill:rgb(216,111,81); stroke:none; stroke-width:1;" r="6" cx="601" cy="459" />
      <circle style="fill:none; stroke:black; stroke-width:1;" r="6" cx="601" cy="459" />
      <circle style="fill:rgb(168,35,56); stroke:none; stroke-width:1;" r="6" cx="707" cy="559" />
      <circle style="fill:none; stroke:black; stroke-width:1;" r="6" cx="707" cy="559" />
      <circle style="fill:rgb(168,35,56); stroke:none; stroke-width:1;" r="6" cx="301" cy="586" />
      <circle style="fill:none; stroke:black; stroke-width:1;" r="6" cx="301" cy="586" />
      <circle style="fill:rgb(168,35,56); stroke:none; stroke-width:1;" r="6" cx="878" cy="620" />
      <circle style="fill:none; stroke:black; stroke-width:1;" r="6" cx="878" cy="620" />
      <circle style="fill:rgb(13,13,13); stroke:none; stroke-width:1;" r="6" cx="50" cy="271" />
      <circle style="fill:none; stroke:black; stroke-width:1;" r="6" cx="50" cy="271" />
      <circle style="fill:rgb(168,35,56); stroke:none; stroke-width:1;" r="6" cx="420" cy="451" />
      <circle style="fill:none; stroke:black; stroke-width:1;" r="6" cx="420" cy="451" />
      <circle style="fill:rgb(13,13,13); stroke:none; stroke-width:1;" r="6" cx="594" cy="290" />
      <circle style="fill:none; stroke:black; stroke-width:1;" r="6" cx="594" cy="290" />
      <circle style="fill:rgb(13,13,13); stroke:none; stroke-width:1;" r="6" cx="455" cy="407" />
      <circle style="fill:none; stroke:black; stroke-width:1;" r="6" cx="455" cy="407" />
      <circle style="fill:rgb(13,13,13); stroke:none; stroke-width:1;" r="6" cx="133" cy="127" />
      <circle style="fill:none; stroke:black; stroke-width:1;" r="6" cx="133" cy="127" />
      <circle style="fill:rgb(216,111,81); stroke:none; stroke-width:1;" r="6" cx="233" cy="234" />
      <circle style="fill:none; stroke:black; stroke-width:1;" r="6" cx="233" cy="234" />
      <circle style="fill:rgb(168,35,56); stroke:none; stroke-width:1;" r="6" cx="194" cy="5" />
      <circle style="fill:none; stroke:black; stroke-width:1;" r="6" cx="194" cy="5" />
      <circle style="fill:rgb(13,13,13); stroke:none; stroke-width:1;" r="6" cx="842" cy="447" />
      <circle style="fill:none; stroke:black; stroke-width:1;" r="6" cx="842" cy="447" />
      <circle style="fill:rgb(216,111,81); stroke:none; stroke-width:1;" r="6" cx="500" cy="590" />
      <circle style="fill:none; stroke:black; stroke-width:1;" r="6" cx="500" cy="590" />
      <circle style="fill:rgb(13,13,13); stroke:none; stroke-width:1;" r="6" cx="283" cy="335" />
      <circle style="fill:none; stroke:black; stroke-width:1;" r="6" cx="283" cy="335" />
      <circle style="fill:rgb(168,35,56); stroke:none; stroke-width:1;" r="6" cx="604" cy="393" />
      <circle style="fill:none; stroke:black; stroke-width:1;" r="6" cx="604" cy="393" />
      <circle style="fill:rgb(168,35,56); stroke:none; stroke-width:1;" r="6" cx="656" cy="408" />
      <circle style="fill:none; stroke:black; stroke-width:1;" r="6" cx="656" cy="408" />
      <circle style="fill:rgb(13,13,13); stroke:none; stroke-width:1;" r="6" cx="104" cy="181" />
      <circle style="fill:none; stroke:black; stroke-width:1;" r="6" cx="104" cy="181" />
      <circle style="fill:rgb(216,111,81); stroke:none; stroke-width:1;" r="6" cx="86" cy="702" />
      <circle style="fill:none; stroke:black; stroke-width:1;" r="6" cx="86" cy="702" />
      <circle style="fill:rgb(13,13,13); stroke:none; stroke-width:1;" r="6" cx="887" cy="543" />
      <circle style="fill:none; stroke:black; stroke-width:1;" r="6" cx="887" cy="543" />
      <circle style="fill:rgb(168,35,56); stroke:none; stroke-width:1;" r="6" cx="894" cy="476" />
      <circle style="fill:none; stroke:black; stroke-width:1;" r="6" cx="894" cy="476" />
      <circle style="fill:rgb(168,35,56); stroke:none; stroke-width:1;" r="6" cx="802" cy="619" />
      <circle style="fill:none; stroke:black; stroke-width:1;" r="6" cx="802" cy="619" />
      <line x1="0" x2="0" y1="0" style="fill:none; stroke:black;" y2="0" />
    </g>
  </g>
</svg>
